<?xml version="1.0" encoding="utf-8"?>
<svg xmlns="http://www.w3.org/2000/svg" style="margin: auto; background: rgba(241, 242, 243, 0); display: block; shape-rendering: auto; animation-play-state: running; animation-delay: 0s;" width="280" height="81" preserveAspectRatio="xMidYMid">
<style type="text/css" style="animation-play-state: running; animation-delay: 0s;">
  text {
    text-anchor: middle; font-size: 49px; opacity: 0;
  }
</style>
<g style="transform-origin: 140px 40.5px; transform: scale(1); animation-play-state: running; animation-delay: 0s;">
<g transform="translate(140,40.5)" style="animation-play-state: running; animation-delay: 0s;">
  <g transform="translate(0,0)" style="animation-play-state: running; animation-delay: 0s;"><g class="path" style="opacity: 1; transform-origin: -117.17px -3.14152px; animation: 1.47059s linear -0.901261s infinite normal forwards running fade-eb1517d5-185c-4ad4-aadd-ac7aa15ca2d0;"><path d="M25.15 0L1.32 0L1.32-2.11L4.16-2.30L4.16-2.30Q4.69-2.34 4.94-2.68L4.94-2.68L4.94-2.68Q5.19-3.01 5.19-3.37L5.19-3.37L5.19-29.50L5.19-29.50Q5.19-29.86 4.94-30.19L4.94-30.19L4.94-30.19Q4.69-30.53 4.16-30.58L4.16-30.58L1.32-30.77L1.32-32.87L13.83-32.87L13.83-30.77L11.22-30.58L11.22-30.58Q10.69-30.53 10.42-30.19L10.42-30.19L10.42-30.19Q10.14-29.86 10.14-29.50L10.14-29.50L10.14-2.39L20.43-2.39L20.43-2.39Q20.77-2.39 21.11-2.64L21.11-2.64L21.11-2.64Q21.46-2.90 21.51-3.23L21.51-3.23L22.30-9.12L25.15-9.12L25.15 0" fill="#060100" stroke="none" stroke-width="none" transform="translate(-130.405029296875,13.293482044764922)" style="fill: rgb(6, 1, 0); animation-play-state: running; animation-delay: 0s;"></path></g><g class="path" style="opacity: 1; transform-origin: -91.07px 1.48848px; animation: 1.47059s linear -0.831933s infinite normal forwards running fade-eb1517d5-185c-4ad4-aadd-ac7aa15ca2d0;"><path d="M50.99-11.77L50.99-11.77L50.99-11.77Q50.99-9.16 50.16-6.90L50.16-6.90L50.16-6.90Q49.33-4.64 47.82-2.98L47.82-2.98L47.82-2.98Q46.30-1.32 44.13-0.36L44.13-0.36L44.13-0.36Q41.97 0.60 39.29 0.60L39.29 0.60L39.29 0.60Q36.61 0.60 34.45-0.35L34.45-0.35L34.45-0.35Q32.30-1.29 30.79-2.94L30.79-2.94L30.79-2.94Q29.29-4.59 28.48-6.85L28.48-6.85L28.48-6.85Q27.68-9.12 27.68-11.77L27.68-11.77L27.68-11.77Q27.68-14.38 28.50-16.65L28.50-16.65L28.50-16.65Q29.31-18.93 30.84-20.61L30.84-20.61L30.84-20.61Q32.37-22.30 34.54-23.26L34.54-23.26L34.54-23.26Q36.70-24.21 39.43-24.21L39.43-24.21L39.43-24.21Q42.16-24.21 44.31-23.23L44.31-23.23L44.31-23.23Q46.46-22.25 47.95-20.56L47.95-20.56L47.95-20.56Q49.43-18.88 50.21-16.62L50.21-16.62L50.21-16.62Q50.99-14.36 50.99-11.77zM45.89-11.82L45.89-11.82L45.89-11.82Q45.89-13.83 45.49-15.67L45.49-15.67L45.49-15.67Q45.10-17.51 44.29-18.93L44.29-18.93L44.29-18.93Q43.47-20.34 42.25-21.17L42.25-21.17L42.25-21.17Q41.03-22.01 39.38-22.01L39.38-22.01L39.38-22.01Q37.68-22.01 36.44-21.17L36.44-21.17L36.44-21.17Q35.19-20.34 34.39-18.93L34.39-18.93L34.39-18.93Q33.59-17.51 33.21-15.67L33.21-15.67L33.21-15.67Q32.83-13.83 32.83-11.82L32.83-11.82L32.83-11.82Q32.83-9.83 33.22-7.99L33.22-7.99L33.22-7.99Q33.62-6.15 34.43-4.74L34.43-4.74L34.43-4.74Q35.24-3.33 36.46-2.48L36.46-2.48L36.46-2.48Q37.68-1.63 39.33-1.63L39.33-1.63L39.33-1.63Q41.01-1.63 42.25-2.46L42.25-2.46L42.25-2.46Q43.50-3.30 44.30-4.71L44.30-4.71L44.30-4.71Q45.10-6.13 45.49-7.97L45.49-7.97L45.49-7.97Q45.89-9.81 45.89-11.82" fill="#060100" stroke="none" stroke-width="none" transform="translate(-130.405029296875,13.293482044764922)" style="fill: rgb(6, 1, 0); animation-play-state: running; animation-delay: 0s;"></path></g><g class="path" style="opacity: 1; transform-origin: -64.845px 1.48848px; animation: 1.47059s linear -0.762605s infinite normal forwards running fade-eb1517d5-185c-4ad4-aadd-ac7aa15ca2d0;"><path d="M76.78 0L69.53 0L68.88-2.90L68.88-2.90Q67.59-1.91 66.23-1.15L66.23-1.15L66.23-1.15Q65.63-0.81 64.96-0.50L64.96-0.50L64.96-0.50Q64.29-0.19 63.58 0.06L63.58 0.06L63.58 0.06Q62.88 0.31 62.15 0.45L62.15 0.45L62.15 0.45Q61.42 0.60 60.70 0.60L60.70 0.60L60.70 0.60Q59.36 0.60 58.20 0.14L58.20 0.14L58.20 0.14Q57.04-0.31 56.18-1.17L56.18-1.17L56.18-1.17Q55.32-2.03 54.83-3.25L54.83-3.25L54.83-3.25Q54.34-4.47 54.34-6.03L54.34-6.03L54.34-6.03Q54.34-6.94 54.51-7.75L54.51-7.75L54.51-7.75Q54.69-8.57 55.24-9.33L55.24-9.33L55.24-9.33Q55.79-10.10 56.79-10.80L56.79-10.80L56.79-10.80Q57.78-11.51 59.40-12.20L59.40-12.20L59.40-12.20Q61.01-12.90 63.34-13.58L63.34-13.58L63.34-13.58Q65.68-14.26 68.88-14.95L68.88-14.95L68.88-17.06L68.88-17.06Q68.88-19.52 67.78-20.71L67.78-20.71L67.78-20.71Q66.68-21.89 64.31-21.89L64.31-21.89L64.31-21.89Q63.02-21.89 62.11-21.65L62.11-21.65L62.11-21.65Q61.20-21.41 60.84-21.27L60.84-21.27L60.84-17.01L57.28-17.01L57.28-17.01Q56.94-17.01 56.62-17.06L56.62-17.06L56.62-17.06Q56.30-17.11 56.03-17.26L56.03-17.26L56.03-17.26Q55.77-17.42 55.62-17.69L55.62-17.69L55.62-17.69Q55.46-17.97 55.46-18.42L55.46-18.42L55.46-18.42Q55.46-19.93 56.37-21.02L56.37-21.02L56.37-21.02Q57.28-22.11 58.74-22.83L58.74-22.83L58.74-22.83Q60.20-23.54 62.02-23.88L62.02-23.88L62.02-23.88Q63.83-24.21 65.65-24.21L65.65-24.21L65.65-24.21Q67.93-24.21 69.42-23.66L69.42-23.66L69.42-23.66Q70.92-23.11 71.79-22.13L71.79-22.13L71.79-22.13Q72.66-21.15 73.02-19.81L73.02-19.81L73.02-19.81Q73.38-18.47 73.38-16.87L73.38-16.87L73.38-3.13L73.38-3.13Q73.38-2.68 73.68-2.39L73.68-2.39L73.68-2.39Q73.98-2.11 74.41-2.06L74.41-2.06L76.78-1.91L76.78 0zM68.88-4.62L68.88-13.09L68.88-13.09Q65.58-12.25 63.64-11.44L63.64-11.44L63.64-11.44Q61.70-10.62 60.71-9.80L60.71-9.80L60.71-9.80Q59.72-8.97 59.44-8.12L59.44-8.12L59.44-8.12Q59.17-7.27 59.17-6.36L59.17-6.36L59.17-6.36Q59.17-5.60 59.42-4.87L59.42-4.87L59.42-4.87Q59.67-4.14 60.14-3.56L60.14-3.56L60.14-3.56Q60.60-2.99 61.29-2.64L61.29-2.64L61.29-2.64Q61.97-2.30 62.85-2.30L62.85-2.30L62.85-2.30Q63.83-2.30 64.90-2.66L64.90-2.66L64.90-2.66Q65.96-3.01 66.85-3.45L66.85-3.45L66.85-3.45Q67.88-3.95 68.88-4.62L68.88-4.62" fill="#060100" stroke="none" stroke-width="none" transform="translate(-130.405029296875,13.293482044764922)" style="fill: rgb(6, 1, 0); animation-play-state: running; animation-delay: 0s;"></path></g><g class="path" style="opacity: 1; transform-origin: -38.79px -4.45652px; animation: 1.47059s linear -0.693277s infinite normal forwards running fade-eb1517d5-185c-4ad4-aadd-ac7aa15ca2d0;"><path d="M103.96 0L96.25 0L96.25-2.61L96.25-2.61Q95.42-1.96 94.52-1.38L94.52-1.38L94.52-1.38Q93.62-0.79 92.68-0.36L92.68-0.36L92.68-0.36Q91.73 0.07 90.74 0.33L90.74 0.33L90.74 0.33Q89.75 0.60 88.67 0.60L88.67 0.60L88.67 0.60Q86.20 0.60 84.42-0.47L84.42-0.47L84.42-0.47Q82.64-1.53 81.49-3.22L81.49-3.22L81.49-3.22Q80.34-4.90 79.80-7.00L79.80-7.00L79.80-7.00Q79.27-9.09 79.27-11.17L79.27-11.17L79.27-11.17Q79.27-13.66 80.03-16.02L80.03-16.02L80.03-16.02Q80.80-18.38 82.35-20.19L82.35-20.19L82.35-20.19Q83.91-22.01 86.25-23.11L86.25-23.11L86.25-23.11Q88.60-24.21 91.76-24.21L91.76-24.21L91.76-24.21Q92.33-24.21 93.00-24.14L93.00-24.14L93.00-24.14Q93.67-24.07 94.30-23.99L94.30-23.99L94.30-23.99Q94.94-23.90 95.45-23.79L95.45-23.79L95.45-23.79Q95.97-23.69 96.25-23.61L96.25-23.61L96.25-32.59L92.54-32.59L92.54-34.21L98.86-36.10L100.82-36.10L100.82-3.13L100.82-3.13Q100.82-2.68 101.11-2.39L101.11-2.39L101.11-2.39Q101.40-2.11 101.85-2.06L101.85-2.06L103.96-1.91L103.96 0zM96.25-4.45L96.25-21.13L96.25-21.13Q95.94-21.22 95.45-21.35L95.45-21.35L95.45-21.35Q94.96-21.49 94.40-21.59L94.40-21.59L94.40-21.59Q93.84-21.70 93.23-21.77L93.23-21.77L93.23-21.77Q92.62-21.84 92.09-21.84L92.09-21.84L92.09-21.84Q90.27-21.84 88.79-21.14L88.79-21.14L88.79-21.14Q87.31-20.43 86.26-19.15L86.26-19.15L86.26-19.15Q85.22-17.87 84.66-16.05L84.66-16.05L84.66-16.05Q84.10-14.24 84.10-12.01L84.10-12.01L84.10-12.01Q84.10-10.00 84.58-8.31L84.58-8.31L84.58-8.31Q85.06-6.63 85.97-5.38L85.97-5.38L85.97-5.38Q86.87-4.14 88.19-3.45L88.19-3.45L88.19-3.45Q89.51-2.75 91.21-2.75L91.21-2.75L91.21-2.75Q91.95-2.75 92.64-2.91L92.64-2.91L92.64-2.91Q93.33-3.06 93.98-3.31L93.98-3.31L93.98-3.31Q94.63-3.56 95.20-3.86L95.20-3.86L95.20-3.86Q95.77-4.16 96.25-4.45L96.25-4.45" fill="#060100" stroke="none" stroke-width="none" transform="translate(-130.405029296875,13.293482044764922)" style="fill: rgb(6, 1, 0); animation-play-state: running; animation-delay: 0s;"></path></g><g class="path" style="opacity: 1; transform-origin: -17.51px -18.3815px; animation: 1.47059s linear -0.62395s infinite normal forwards running fade-eb1517d5-185c-4ad4-aadd-ac7aa15ca2d0;"><path d="M115.90-31.70L115.90-31.70L115.90-31.70Q115.90-31.08 115.67-30.52L115.67-30.52L115.67-30.52Q115.44-29.96 115.04-29.55L115.04-29.55L115.04-29.55Q114.63-29.14 114.09-28.90L114.09-28.90L114.09-28.90Q113.55-28.66 112.93-28.66L112.93-28.66L112.93-28.66Q112.31-28.66 111.75-28.90L111.75-28.90L111.75-28.90Q111.18-29.14 110.78-29.55L110.78-29.55L110.78-29.55Q110.37-29.96 110.13-30.52L110.13-30.52L110.13-30.52Q109.89-31.08 109.89-31.70L109.89-31.70L109.89-31.70Q109.89-32.32 110.13-32.87L110.13-32.87L110.13-32.87Q110.37-33.42 110.78-33.83L110.78-33.83L110.78-33.83Q111.18-34.24 111.75-34.47L111.75-34.47L111.75-34.47Q112.31-34.69 112.93-34.69L112.93-34.69L112.93-34.69Q113.55-34.69 114.09-34.47L114.09-34.47L114.09-34.47Q114.63-34.24 115.04-33.83L115.04-33.83L115.04-33.83Q115.44-33.42 115.67-32.87L115.67-32.87L115.67-32.87Q115.90-32.32 115.90-31.70" fill="#060100" stroke="none" stroke-width="none" transform="translate(-130.405029296875,13.293482044764922)" style="fill: rgb(6, 1, 0); animation-play-state: running; animation-delay: 0s;"></path></g><g class="path" style="opacity: 1; transform-origin: -17.75px 1.18848px; animation: 1.47059s linear -0.554622s infinite normal forwards running fade-eb1517d5-185c-4ad4-aadd-ac7aa15ca2d0;"><path d="M118.41 0L106.90 0L106.90-1.91L109.29-2.06L109.29-2.06Q109.75-2.11 110.03-2.39L110.03-2.39L110.03-2.39Q110.32-2.68 110.32-3.13L110.32-3.13L110.32-20.62L106.95-20.62L106.95-22.35L112.93-24.21L114.87-24.21L114.87-3.13L114.87-3.13Q114.87-2.68 115.17-2.39L115.17-2.39L115.17-2.39Q115.47-2.11 115.90-2.06L115.90-2.06L118.41-1.91L118.41 0" fill="#060100" stroke="none" stroke-width="none" transform="translate(-130.405029296875,13.293482044764922)" style="fill: rgb(6, 1, 0); animation-play-state: running; animation-delay: 0s;"></path></g><g class="path" style="opacity: 1; transform-origin: 3.56497px 1.18848px; animation: 1.47059s linear -0.485294s infinite normal forwards running fade-eb1517d5-185c-4ad4-aadd-ac7aa15ca2d0;"><path d="M146.88 0L136.07 0L136.07-1.91L138.12-2.06L138.12-2.06Q138.55-2.11 138.85-2.39L138.85-2.39L138.85-2.39Q139.15-2.68 139.15-3.13L139.15-3.13L139.15-15.89L139.15-15.89Q139.15-18.21 138.08-19.42L138.08-19.42L138.08-19.42Q137.00-20.62 134.44-20.62L134.44-20.62L134.44-20.62Q133.03-20.62 131.66-20.23L131.66-20.23L131.66-20.23Q130.30-19.83 129.06-19.21L129.06-19.21L129.06-3.13L129.06-3.13Q129.06-2.68 129.34-2.39L129.34-2.39L129.34-2.39Q129.63-2.11 130.08-2.06L130.08-2.06L132.14-1.91L132.14 0L121.06 0L121.06-1.91L123.46-2.06L123.46-2.06Q123.91-2.11 124.20-2.39L124.20-2.39L124.20-2.39Q124.49-2.68 124.49-3.13L124.49-3.13L124.49-20.15L121.06-20.15L121.06-21.75L127.05-23.61L129.06-23.61L129.06-21.17L129.06-21.17Q130.08-21.75 131.15-22.30L131.15-22.30L131.15-22.30Q132.21-22.85 133.27-23.28L133.27-23.28L133.27-23.28Q134.32-23.71 135.30-23.96L135.30-23.96L135.30-23.96Q136.28-24.21 137.14-24.21L137.14-24.21L137.14-24.21Q140.35-24.21 142.02-22.23L142.02-22.23L142.02-22.23Q143.70-20.24 143.70-16.65L143.70-16.65L143.70-3.13L143.70-3.13Q143.70-2.68 144.00-2.39L144.00-2.39L144.00-2.39Q144.30-2.11 144.73-2.06L144.73-2.06L146.88-1.91L146.88 0" fill="#060100" stroke="none" stroke-width="none" transform="translate(-130.405029296875,13.293482044764922)" style="fill: rgb(6, 1, 0); animation-play-state: running; animation-delay: 0s;"></path></g><g class="path" style="opacity: 1; transform-origin: 30.735px 6.79848px; animation: 1.47059s linear -0.415966s infinite normal forwards running fade-eb1517d5-185c-4ad4-aadd-ac7aa15ca2d0;"><path d="M172.74-20.34L167.86-20.34L167.86-20.34Q168.41-19.45 168.80-18.41L168.80-18.41L168.80-18.41Q169.18-17.37 169.18-15.93L169.18-15.93L169.18-15.93Q169.18-14.09 168.39-12.66L168.39-12.66L168.39-12.66Q167.60-11.22 166.27-10.22L166.27-10.22L166.27-10.22Q164.94-9.21 163.21-8.69L163.21-8.69L163.21-8.69Q161.48-8.16 159.56-8.16L159.56-8.16L159.08-8.16L159.08-8.16Q158.84-8.16 158.60-8.18L158.60-8.18L158.60-8.18Q158.29-7.68 158.19-7.11L158.19-7.11L158.19-7.11Q158.08-6.53 158.08-6.03L158.08-6.03L158.08-6.03Q158.08-5.57 158.13-5.26L158.13-5.26L158.13-5.26Q158.17-4.95 158.20-4.90L158.20-4.90L158.89-4.83L158.89-4.83Q160.04-4.71 161.42-4.56L161.42-4.56L161.42-4.56Q162.79-4.40 164.19-4.10L164.19-4.10L164.19-4.10Q165.59-3.80 166.91-3.34L166.91-3.34L166.91-3.34Q168.22-2.87 169.24-2.17L169.24-2.17L169.24-2.17Q170.26-1.46 170.87-0.44L170.87-0.44L170.87-0.44Q171.48 0.57 171.48 1.96L171.48 1.96L171.48 1.96Q171.48 3.71 170.48 5.37L170.48 5.37L170.48 5.37Q169.49 7.03 167.77 8.34L167.77 8.34L167.77 8.34Q166.04 9.64 163.72 10.43L163.72 10.43L163.72 10.43Q161.40 11.22 158.75 11.22L158.75 11.22L158.75 11.22Q156.55 11.22 154.84 10.69L154.84 10.69L154.84 10.69Q153.13 10.17 151.95 9.24L151.95 9.24L151.95 9.24Q150.78 8.30 150.16 7.02L150.16 7.02L150.16 7.02Q149.54 5.74 149.54 4.26L149.54 4.26L149.54 4.26Q149.54 3.18 149.85 2.21L149.85 2.21L149.85 2.21Q150.16 1.24 150.80 0.47L150.80 0.47L150.80 0.47Q151.45-0.31 152.42-0.87L152.42-0.87L152.42-0.87Q153.39-1.44 154.73-1.67L154.73-1.67L154.73-1.67Q154.58-2.06 154.49-2.31L154.49-2.31L154.49-2.31Q154.39-2.56 154.33-2.79L154.33-2.79L154.33-2.79Q154.27-3.01 154.25-3.27L154.25-3.27L154.25-3.27Q154.23-3.52 154.23-3.92L154.23-3.92L154.23-3.92Q154.23-4.88 154.81-6.04L154.81-6.04L154.81-6.04Q155.40-7.20 156.69-8.52L156.69-8.52L156.69-8.52Q155.47-8.80 154.37-9.43L154.37-9.43L154.37-9.43Q153.27-10.05 152.43-10.99L152.43-10.99L152.43-10.99Q151.59-11.94 151.10-13.17L151.10-13.17L151.10-13.17Q150.61-14.40 150.61-15.89L150.61-15.89L150.61-15.89Q150.61-17.82 151.33-19.37L151.33-19.37L151.33-19.37Q152.05-20.91 153.34-21.99L153.34-21.99L153.34-21.99Q154.63-23.06 156.44-23.64L156.44-23.64L156.44-23.64Q158.25-24.21 160.45-24.21L160.45-24.21L160.45-24.21Q161.31-24.21 162.13-24.07L162.13-24.07L162.13-24.07Q162.96-23.93 163.69-23.70L163.69-23.70L163.69-23.70Q164.42-23.47 165.04-23.21L165.04-23.21L165.04-23.21Q165.66-22.94 166.14-22.73L166.14-22.73L172.74-22.73L172.74-20.34zM167.27 3.28L167.27 3.28L167.27 3.28Q167.27 2.27 166.76 1.57L166.76 1.57L166.76 1.57Q166.26 0.86 165.43 0.41L165.43 0.41L165.43 0.41Q164.61-0.05 163.57-0.32L163.57-0.32L163.57-0.32Q162.53-0.60 161.46-0.78L161.46-0.78L161.46-0.78Q160.40-0.96 159.39-1.06L159.39-1.06L159.39-1.06Q158.39-1.17 157.67-1.32L157.67-1.32L157.67-1.32Q156.59-0.93 155.88-0.39L155.88-0.39L155.88-0.39Q155.16 0.14 154.73 0.77L154.73 0.77L154.73 0.77Q154.30 1.39 154.12 2.03L154.12 2.03L154.12 2.03Q153.94 2.68 153.94 3.28L153.94 3.28L153.94 3.28Q153.94 4.16 154.32 5.17L154.32 5.17L154.32 5.17Q154.70 6.17 155.49 7.01L155.49 7.01L155.49 7.01Q156.28 7.85 157.49 8.41L157.49 8.41L157.49 8.41Q158.70 8.97 160.35 8.97L160.35 8.97L160.35 8.97Q162.10 8.97 163.40 8.41L163.40 8.41L163.40 8.41Q164.71 7.85 165.57 7.01L165.57 7.01L165.57 7.01Q166.43 6.17 166.85 5.17L166.85 5.17L166.85 5.17Q167.27 4.16 167.27 3.28zM164.51-16.22L164.51-16.22L164.51-16.22Q164.51-17.37 164.21-18.46L164.21-18.46L164.21-18.46Q163.92-19.55 163.34-20.37L163.34-20.37L163.34-20.37Q162.77-21.20 161.92-21.70L161.92-21.70L161.92-21.70Q161.07-22.20 159.97-22.20L159.97-22.20L159.97-22.20Q158.94-22.20 158.08-21.80L158.08-21.80L158.08-21.80Q157.22-21.39 156.61-20.61L156.61-20.61L156.61-20.61Q156.00-19.83 155.65-18.71L155.65-18.71L155.65-18.71Q155.30-17.59 155.30-16.17L155.30-16.17L155.30-16.17Q155.30-14.95 155.60-13.86L155.60-13.86L155.60-13.86Q155.90-12.78 156.49-11.96L156.49-11.96L156.49-11.96Q157.07-11.15 157.95-10.67L157.95-10.67L157.95-10.67Q158.82-10.19 159.97-10.19L159.97-10.19L159.97-10.19Q161.07-10.19 161.92-10.67L161.92-10.67L161.92-10.67Q162.77-11.15 163.34-11.96L163.34-11.96L163.34-11.96Q163.92-12.78 164.21-13.88L164.21-13.88L164.21-13.88Q164.51-14.98 164.51-16.22" fill="#060100" stroke="none" stroke-width="none" transform="translate(-130.405029296875,13.293482044764922)" style="fill: rgb(6, 1, 0); animation-play-state: running; animation-delay: 0s;"></path></g><g class="path" style="opacity: 1; transform-origin: 49.84px 9.52348px; animation: 1.47059s linear -0.346639s infinite normal forwards running fade-eb1517d5-185c-4ad4-aadd-ac7aa15ca2d0;"><path d="M184.01-3.78L184.01-3.78L184.01-3.78Q184.01-2.99 183.73-2.30L183.73-2.30L183.73-2.30Q183.44-1.60 182.92-1.10L182.92-1.10L182.92-1.10Q182.41-0.60 181.73-0.30L181.73-0.30L181.73-0.30Q181.05 0 180.26 0L180.26 0L180.26 0Q179.47 0 178.77-0.30L178.77-0.30L178.77-0.30Q178.08-0.60 177.57-1.10L177.57-1.10L177.57-1.10Q177.05-1.60 176.76-2.30L176.76-2.30L176.76-2.30Q176.48-2.99 176.48-3.78L176.48-3.78L176.48-3.78Q176.48-4.57 176.76-5.25L176.76-5.25L176.76-5.25Q177.05-5.93 177.57-6.45L177.57-6.45L177.57-6.45Q178.08-6.96 178.77-7.25L178.77-7.25L178.77-7.25Q179.47-7.54 180.26-7.54L180.26-7.54L180.26-7.54Q181.05-7.54 181.73-7.25L181.73-7.25L181.73-7.25Q182.41-6.96 182.92-6.45L182.92-6.45L182.92-6.45Q183.44-5.93 183.73-5.25L183.73-5.25L183.73-5.25Q184.01-4.57 184.01-3.78" fill="#060100" stroke="none" stroke-width="none" transform="translate(-130.405029296875,13.293482044764922)" style="fill: rgb(6, 1, 0); animation-play-state: running; animation-delay: 0s;"></path></g><g class="path" style="opacity: 1; transform-origin: 65.465px 9.52348px; animation: 1.47059s linear -0.277311s infinite normal forwards running fade-eb1517d5-185c-4ad4-aadd-ac7aa15ca2d0;"><path d="M199.64-3.78L199.64-3.78L199.64-3.78Q199.64-2.99 199.35-2.30L199.35-2.30L199.35-2.30Q199.06-1.60 198.55-1.10L198.55-1.10L198.55-1.10Q198.03-0.60 197.35-0.30L197.35-0.30L197.35-0.30Q196.67 0 195.88 0L195.88 0L195.88 0Q195.09 0 194.40-0.30L194.40-0.30L194.40-0.30Q193.70-0.60 193.19-1.10L193.19-1.10L193.19-1.10Q192.67-1.60 192.39-2.30L192.39-2.30L192.39-2.30Q192.10-2.99 192.10-3.78L192.10-3.78L192.10-3.78Q192.10-4.57 192.39-5.25L192.39-5.25L192.39-5.25Q192.67-5.93 193.19-6.45L193.19-6.45L193.19-6.45Q193.70-6.96 194.40-7.25L194.40-7.25L194.40-7.25Q195.09-7.54 195.88-7.54L195.88-7.54L195.88-7.54Q196.67-7.54 197.35-7.25L197.35-7.25L197.35-7.25Q198.03-6.96 198.55-6.45L198.55-6.45L198.55-6.45Q199.06-5.93 199.35-5.25L199.35-5.25L199.35-5.25Q199.64-4.57 199.64-3.78" fill="#060100" stroke="none" stroke-width="none" transform="translate(-130.405029296875,13.293482044764922)" style="fill: rgb(6, 1, 0); animation-play-state: running; animation-delay: 0s;"></path></g><g class="path" style="opacity: 1; transform-origin: 81.085px 9.52348px; animation: 1.47059s linear -0.207983s infinite normal forwards running fade-eb1517d5-185c-4ad4-aadd-ac7aa15ca2d0;"><path d="M215.26-3.78L215.26-3.78L215.26-3.78Q215.26-2.99 214.97-2.30L214.97-2.30L214.97-2.30Q214.69-1.60 214.17-1.10L214.17-1.10L214.17-1.10Q213.66-0.60 212.98-0.30L212.98-0.30L212.98-0.30Q212.29 0 211.50 0L211.50 0L211.50 0Q210.71 0 210.02-0.30L210.02-0.30L210.02-0.30Q209.33-0.60 208.81-1.10L208.81-1.10L208.81-1.10Q208.30-1.60 208.01-2.30L208.01-2.30L208.01-2.30Q207.72-2.99 207.72-3.78L207.72-3.78L207.72-3.78Q207.72-4.57 208.01-5.25L208.01-5.25L208.01-5.25Q208.30-5.93 208.81-6.45L208.81-6.45L208.81-6.45Q209.33-6.96 210.02-7.25L210.02-7.25L210.02-7.25Q210.71-7.54 211.50-7.54L211.50-7.54L211.50-7.54Q212.29-7.54 212.98-7.25L212.98-7.25L212.98-7.25Q213.66-6.96 214.17-6.45L214.17-6.45L214.17-6.45Q214.69-5.93 214.97-5.25L214.97-5.25L214.97-5.25Q215.26-4.57 215.26-3.78" fill="#060100" stroke="none" stroke-width="none" transform="translate(-130.405029296875,13.293482044764922)" style="fill: rgb(6, 1, 0); animation-play-state: running; animation-delay: 0s;"></path></g><g class="path" style="opacity: 1; transform-origin: 96.71px 9.52348px; animation: 1.47059s linear -0.138655s infinite normal forwards running fade-eb1517d5-185c-4ad4-aadd-ac7aa15ca2d0;"><path d="M230.88-3.78L230.88-3.78L230.88-3.78Q230.88-2.99 230.60-2.30L230.60-2.30L230.60-2.30Q230.31-1.60 229.80-1.10L229.80-1.10L229.80-1.10Q229.28-0.60 228.60-0.30L228.60-0.30L228.60-0.30Q227.92 0 227.13 0L227.13 0L227.13 0Q226.34 0 225.64-0.30L225.64-0.30L225.64-0.30Q224.95-0.60 224.44-1.10L224.44-1.10L224.44-1.10Q223.92-1.60 223.63-2.30L223.63-2.30L223.63-2.30Q223.35-2.99 223.35-3.78L223.35-3.78L223.35-3.78Q223.35-4.57 223.63-5.25L223.63-5.25L223.63-5.25Q223.92-5.93 224.44-6.45L224.44-6.45L224.44-6.45Q224.95-6.96 225.64-7.25L225.64-7.25L225.64-7.25Q226.34-7.54 227.13-7.54L227.13-7.54L227.13-7.54Q227.92-7.54 228.60-7.25L228.60-7.25L228.60-7.25Q229.28-6.96 229.80-6.45L229.80-6.45L229.80-6.45Q230.31-5.93 230.60-5.25L230.60-5.25L230.60-5.25Q230.88-4.57 230.88-3.78" fill="#060100" stroke="none" stroke-width="none" transform="translate(-130.405029296875,13.293482044764922)" style="fill: rgb(6, 1, 0); animation-play-state: running; animation-delay: 0s;"></path></g><g class="path" style="opacity: 1; transform-origin: 112.335px 9.52348px; animation: 1.47059s linear -0.0693277s infinite normal forwards running fade-eb1517d5-185c-4ad4-aadd-ac7aa15ca2d0;"><path d="M246.51-3.78L246.51-3.78L246.51-3.78Q246.51-2.99 246.22-2.30L246.22-2.30L246.22-2.30Q245.93-1.60 245.42-1.10L245.42-1.10L245.42-1.10Q244.90-0.60 244.22-0.30L244.22-0.30L244.22-0.30Q243.54 0 242.75 0L242.75 0L242.75 0Q241.96 0 241.27-0.30L241.27-0.30L241.27-0.30Q240.57-0.60 240.06-1.10L240.06-1.10L240.06-1.10Q239.54-1.60 239.26-2.30L239.26-2.30L239.26-2.30Q238.97-2.99 238.97-3.78L238.97-3.78L238.97-3.78Q238.97-4.57 239.26-5.25L239.26-5.25L239.26-5.25Q239.54-5.93 240.06-6.45L240.06-6.45L240.06-6.45Q240.57-6.96 241.27-7.25L241.27-7.25L241.27-7.25Q241.96-7.54 242.75-7.54L242.75-7.54L242.75-7.54Q243.54-7.54 244.22-7.25L244.22-7.25L244.22-7.25Q244.90-6.96 245.42-6.45L245.42-6.45L245.42-6.45Q245.93-5.93 246.22-5.25L246.22-5.25L246.22-5.25Q246.51-4.57 246.51-3.78" fill="#060100" stroke="none" stroke-width="none" transform="translate(-130.405029296875,13.293482044764922)" style="fill: rgb(6, 1, 0); animation-play-state: running; animation-delay: 0s;"></path></g><g class="path" style="opacity: 1; transform-origin: 127.955px 9.52348px; animation: 1.47059s linear 0s infinite normal forwards running fade-eb1517d5-185c-4ad4-aadd-ac7aa15ca2d0;"><path d="M262.13-3.78L262.13-3.78L262.13-3.78Q262.13-2.99 261.84-2.30L261.84-2.30L261.84-2.30Q261.56-1.60 261.04-1.10L261.04-1.10L261.04-1.10Q260.53-0.60 259.85-0.30L259.85-0.30L259.85-0.30Q259.16 0 258.37 0L258.37 0L258.37 0Q257.58 0 256.89-0.30L256.89-0.30L256.89-0.30Q256.20-0.60 255.68-1.10L255.68-1.10L255.68-1.10Q255.17-1.60 254.88-2.30L254.88-2.30L254.88-2.30Q254.59-2.99 254.59-3.78L254.59-3.78L254.59-3.78Q254.59-4.57 254.88-5.25L254.88-5.25L254.88-5.25Q255.17-5.93 255.68-6.45L255.68-6.45L255.68-6.45Q256.20-6.96 256.89-7.25L256.89-7.25L256.89-7.25Q257.58-7.54 258.37-7.54L258.37-7.54L258.37-7.54Q259.16-7.54 259.85-7.25L259.85-7.25L259.85-7.25Q260.53-6.96 261.04-6.45L261.04-6.45L261.04-6.45Q261.56-5.93 261.84-5.25L261.84-5.25L261.84-5.25Q262.13-4.57 262.13-3.78" fill="#060100" stroke="none" stroke-width="none" transform="translate(-130.405029296875,13.293482044764922)" style="fill: rgb(6, 1, 0); animation-play-state: running; animation-delay: 0s;"></path></g></g>
</g>
</g>
<style id="fade-eb1517d5-185c-4ad4-aadd-ac7aa15ca2d0" data-anikit="">@keyframes fade-eb1517d5-185c-4ad4-aadd-ac7aa15ca2d0
{
  0% {
    animation-timing-function: cubic-bezier(0.2057,0.573,0.3723,0.9184);
    opacity: 1;
  }
  100% {
    opacity: 0;
  }
}</style></svg>